<svg width="139" height="48" viewBox="0 0 139 48" fill="none" xmlns="http://www.w3.org/2000/svg">
<g clip-path="url(#clip0_1045_1509)">
<path d="M43.8251 37.8505C35.6971 37.8505 29.0251 31.5329 29.0251 23.766C29.0251 15.9992 35.6946 9.68152 43.8251 9.68152C51.9555 9.68152 58.625 15.9463 58.625 23.766C58.625 31.5857 52.0062 37.8505 43.8251 37.8505ZM43.8251 15.6897C39.3965 15.6897 35.8009 19.2624 35.8009 23.7685C35.8009 28.2747 39.3965 31.8474 43.8251 31.8474C48.2537 31.8474 51.8492 28.2747 51.8492 23.7685C51.8492 19.2624 48.3068 15.6897 43.8251 15.6897Z" fill="#99FFFF"/>
<path d="M60.4987 37.1259V0.880615H67.3252V37.1259H60.4987Z" fill="#99FFFF"/>
<path d="M77.3826 10.3558V12.8919C79.7804 10.8716 82.8012 9.68152 86.0853 9.68152C94.1094 9.68152 100.467 16.0495 100.467 23.766C100.467 31.4825 94.1094 37.8505 86.0853 37.8505C82.8012 37.8505 79.8311 36.6604 77.4357 34.6929V48H70.6093V10.3558H77.3826ZM85.513 31.8952C89.9948 31.8952 93.6942 28.3225 93.6942 23.766C93.6942 19.2096 89.9948 15.584 85.513 15.584C81.0313 15.584 77.3319 19.2599 77.3319 23.766C77.3319 28.2721 80.9806 31.8952 85.513 31.8952Z" fill="#99FFFF"/>
<path d="M102.344 3.72869C102.344 1.6052 104.063 0 106.2 0C108.337 0 109.953 1.6052 109.953 3.72869C109.953 5.85219 108.337 7.50771 106.2 7.50771C104.063 7.50771 102.344 5.84967 102.344 3.72869ZM109.588 37.1259H102.761V10.3558H109.588V37.1259Z" fill="#99FFFF"/>
<path d="M138.198 37.1259H131.371V21.4362C131.371 17.9667 129.13 15.6897 125.796 15.6897C122.461 15.6897 120.167 17.8635 120.167 21.4362V37.1259H113.34V10.3558H120.167V12.6353C122.043 10.7206 124.649 9.63123 127.566 9.63123C133.87 9.63123 138.195 14.2405 138.195 20.0902V37.1259H138.198Z" fill="#99FFFF"/>
<path d="M20.8972 21.1494C21.4821 24.0478 24.0572 26.2317 27.1488 26.2317V0.880615C27.0881 0.880615 27.0298 0.880615 26.9716 0.883131C24.0547 0.961127 21.6289 2.9865 20.9579 5.69873C20.8364 6.18683 20.7731 6.69506 20.7731 7.21839V7.49011C20.7731 7.49011 20.7731 7.50521 20.7731 7.51527V7.55805V11.6214C20.7452 11.5987 20.7149 11.5761 20.687 11.5534C20.4819 11.3974 20.2768 11.244 20.0666 11.098C19.3729 10.6175 18.6335 10.2074 17.8612 9.87275C17.7295 9.81489 17.5953 9.75953 17.4611 9.7067C16.2154 9.22363 14.8759 8.93681 13.4731 8.89152C13.3415 8.88649 13.2098 8.88649 13.0807 8.88649C5.77818 8.88649 0.00759621 14.5399 0 21.6954C0 21.8338 0 21.9721 0.00253207 22.1105C0 22.2212 0 22.3269 0 22.4376V24.1459C0.00253207 24.6466 0.00506414 25.1498 0.00253207 25.6505C-0.00253207 26.4682 0.0683659 27.2809 0.23295 28.081C0.736832 30.534 1.88639 32.6374 3.68416 34.391C3.97282 34.6728 4.2792 34.932 4.62103 35.244C3.75759 35.2012 2.94733 35.1936 2.25101 35.7195C1.54709 36.2453 1.19007 36.9448 1.15462 37.8405C1.24578 37.8455 1.31668 37.8505 1.39011 37.8505C8.46977 37.8505 15.5469 37.853 22.6291 37.8505C23.447 37.8505 24.2547 37.8002 25.0396 37.5436C25.7182 37.3247 26.2778 36.9448 26.6602 36.3359C26.8754 35.9988 26.9007 35.6415 26.7083 35.2867C26.5158 34.932 26.2094 34.7559 25.7993 34.7508H25.189C24.5155 34.7508 23.9711 34.3936 23.7204 33.8451C23.6293 33.6513 23.5761 33.435 23.566 33.201C23.5533 32.8966 23.5255 32.5946 23.4849 32.2952C23.1279 29.8145 21.3074 27.6859 18.9475 26.8632C18.7019 26.7777 18.4563 26.7097 18.2005 26.6519C17.3751 26.4707 16.5445 26.4808 15.709 26.4883C15.1165 26.4908 14.5493 26.3827 14.0327 26.0984C12.8173 25.4316 12.2071 24.3925 12.1944 23.0213C12.1767 21.4639 12.1894 19.9015 12.1894 18.3416C12.1894 17.6396 12.1995 16.9351 12.2299 16.2332C12.2299 16.2156 12.2324 16.1954 12.2324 16.1753C12.2881 15.1463 13.144 14.326 14.1948 14.326C14.2429 14.326 14.291 14.3261 14.3366 14.3336C14.3822 14.3336 14.4277 14.3411 14.4733 14.3462C17.5118 14.6934 19.9806 16.8244 20.7706 19.7002C20.7706 19.7077 20.7706 19.7178 20.7706 19.7254V19.8889C20.7706 20.3191 20.8136 20.7393 20.8972 21.1444V21.1494ZM18.117 32.6852C18.6892 32.6928 19.1348 33.1532 19.1298 33.7243C19.1222 34.2904 18.6614 34.7483 18.0967 34.7458C17.5194 34.7433 17.0585 34.2703 17.0687 33.6891C17.0788 33.123 17.5472 32.6777 18.117 32.6852Z" fill="#99FFFF"/>
</g>
<defs>
<clipPath id="clip0_1045_1509">
<rect width="138.198" height="48" fill="white"/>
</clipPath>
</defs>
</svg>
